<?xml version="1.0" encoding="UTF-8" standalone="no"?>
<!DOCTYPE svg PUBLIC "-//W3C//DTD SVG 1.1//EN" "http://www.w3.org/Graphics/SVG/1.1/DTD/svg11.dtd">
<svg width="100%" height="100%" viewBox="0 0 7024 4043" version="1.1" xmlns="http://www.w3.org/2000/svg" xmlns:xlink="http://www.w3.org/1999/xlink" xml:space="preserve" xmlns:serif="http://www.serif.com/" style="fill-rule:evenodd;clip-rule:evenodd;stroke-linejoin:round;stroke-miterlimit:2;">
    <g transform="matrix(4.16667,0,0,4.16667,-28541.7,0)">
        <g id="Final" transform="matrix(1,0,0,1,-0.60895,0)">
            <rect x="6850.61" y="0" width="1685.7" height="970.207" style="fill:none;"/>
            <g id="Logo" transform="matrix(6.15695,0,0,3.93059,6066.44,-2902.88)">
                <g id="Background" transform="matrix(0.264111,0,0,0.413708,0,0)">
                    <path d="M1278.96,1921.55L1278.96,2245.41L722.145,2245.41L995.641,1921.55L1278.96,1921.55Z"/>
                </g>
                <g transform="matrix(1.09851,0,0,1.09851,-395.126,-253.013)">
                    <g id="Letters">
                        <g>
                            <g>
                                <g transform="matrix(76.064,0,0,119.148,602.084,1055.73)">
                                    <path d="M0.274,-0.712L0.274,-0.698L0.425,-0.698C0.452,-0.698 0.475,-0.694 0.495,-0.687C0.514,-0.68 0.531,-0.669 0.546,-0.656C0.561,-0.642 0.574,-0.625 0.585,-0.606C0.596,-0.587 0.606,-0.565 0.615,-0.541L0.628,-0.541L0.628,-0.712L0.274,-0.712Z" style="fill:white;fill-rule:nonzero;"/>
                                </g>
                                <g transform="matrix(53.2855,0,0,83.4674,608.325,1048.14)">
                                    <path d="M0.274,-0.376L0.274,-0.356L0.341,-0.356C0.364,-0.356 0.384,-0.358 0.4,-0.35C0.415,-0.342 0.428,-0.331 0.439,-0.318C0.45,-0.304 0.458,-0.288 0.465,-0.27C0.471,-0.252 0.476,-0.233 0.481,-0.214L0.494,-0.214L0.494,-0.525L0.481,-0.525C0.476,-0.502 0.47,-0.482 0.463,-0.464C0.456,-0.445 0.446,-0.43 0.435,-0.417C0.424,-0.404 0.409,-0.394 0.393,-0.387C0.376,-0.38 0.355,-0.376 0.33,-0.376L0.274,-0.376Z" style="fill:white;fill-rule:nonzero;"/>
                                </g>
                            </g>
                            <g transform="matrix(0.264111,0,0,0.413708,0,0)">
                                <path d="M2347.49,2346.82L2347.29,2555.91L2370.31,2555.91L2370.31,2559.94L2273.54,2559.94L2273.54,2555.91L2302.58,2555.91L2302.74,2463.13L2302.74,2463.13L2302.74,2461.69L2302.74,2457.66L2302.74,2396.07L2250.76,2457.66L2291.59,2457.66L2291.59,2461.69L2247.57,2461.69L2167.58,2555.91L2191.46,2555.91L2191.46,2559.94L2138.78,2559.94L2138.78,2555.91L2162.97,2555.91L2339.71,2346.82L2347.49,2346.82Z" style="fill:white;fill-rule:nonzero;"/>
                            </g>
                        </g>
                    </g>
                </g>
            </g>
        </g>
    </g>
</svg>
